<svg id="Vector_Smart_Object" data-name="Vector Smart Object" xmlns="http://www.w3.org/2000/svg" viewBox="0 0 84 52">
  <defs>
    <style>
      .cls-1 {
        fill: #fff;
      }
    </style>
  </defs>
  <g id="Group_98" data-name="Group 98" transform="translate(0 0)">
    <path id="Path_9" data-name="Path 9" class="cls-1" d="M204.607,107.289c-5.986,1.595-11.921,3.37-17.875,5.081-6.705,1.755-33.492,8.911-34.849,9.288-4.148,1.153-8.338,2.157-12.485,3.317-2.187.612-7.761,1.406-7.761,3.427,0,2.851,6.105,1.5,6.916.978s.876-1.437,2-1.825c2.433-.839,6.564-1.777,9.917-2.645.562-.145,2.363-.62,2.363-.62a54.139,54.139,0,0,1-1.818,8c-1.434.407-3.193.845-4.685,1.24-2.084.551-4.178,1.059-6.264,1.6-.854.221-2.024.3-1.8,1.571.264,1.488,1.871,1.622,3.634,1.026,2.261-.764,6.7-2.058,8.3-2.393-.273,1.117-.61,2.649-.8,3.551-1.014,4.771-1.248,6.008-1.961,9.31a59.032,59.032,0,0,0-.905,7.893c.1,1.689,2.923.918,3.1-.287.261-1.77,1-5.3,1.6-8.858.542-3.2,2.167-10.459,2.769-12.5.093-.315,12.054-3.338,12.282-3.63a1.857,1.857,0,0,0-.006-1.836c-.225-.423-1.367-.434-3.4,0-1.685.361-3.078.721-4.648,1.175-.546.158-3.389.951-3.389.951.317-1.219,1.223-5.244,2.012-7.742,1.8-.517,30.292-8.683,35.4-10.011h.083c5.324-1.49,10.315-2.952,15.715-4.139,3.841-.843,5.611-.926,5.611-2.158s-3.566-1.224-9.065.24" transform="translate(-131.638 -106.157)"/>
  </g>
</svg>
